# AST/ASF file generated using VICON BodyLanguage
# -----------------------------------------------
:version 1.10
:name VICON
:units
  mass 1.0
  length 0.45
  angle deg
:documentation
   .ast/.asf automatically generated from VICON data using
   VICON BodyBuilder and BodyLanguage model FoxedUp or BRILLIANT.MOD
:root
   order TX TY TZ RX RY RZ
   axis XYZ
   position 0 0 0  
   orientation 0 0 0 
:bonedata
  begin
     id 1 
     name lhipjoint
     direction 0.611804 -0.747784 0.257906 
     length 2.29243 
     axis 0 0 0  XYZ
  end
  begin
     id 2 
     name lfemur
     direction 0.34202 -0.939693 0  
     length 7.31159  
     axis 0 0 20  XYZ
    dof rx ry rz
    limits (-160.0 20.0)
           (-70.0 70.0)
           (-60.0 70.0)
  end
  begin
     id 3 
     name ltibia
     direction 0.34202 -0.939693 0   
     length 7.33391   
     axis 0 0 20   XYZ
    dof rx
    limits (-10.0 170.0)
  end
  begin
     id 4 
     name lfoot
     direction 0.122263 -0.335914 0.933924   
     length 1.76083   
     axis -90 7.62852e-016 20   XYZ
    dof rx rz
    limits (-45.0 90.0)
           (-70.0 20.0)
  end
  begin
     id 5 
     name ltoes
     direction 1.53533e-011 -4.2177e-011 1   
     length 0.879206   
     axis -90 7.62852e-016 20   XYZ
    dof rx
    limits (-90.0 20.0)
  end
  begin
     id 6 
     name rhipjoint
     direction -0.646469 -0.721248 0.248754   
     length 2.37677  
     axis 0 0 0  XYZ 
  end
  begin
     id 7 
     name rfemur
     direction -0.34202 -0.939693 0   
     length 7.18623   
     axis 0 0 -20   XYZ
    dof rx ry rz
    limits (-160.0 20.0)
           (-70.0 70.0)
           (-70.0 60.0)
  end
  begin
     id 8 
     name rtibia
     direction -0.34202 -0.939693 0   
     length 7.36567   
     axis 0 0 -20   XYZ
    dof rx
    limits (-10.0 170.0)
 end
 begin
     id 9 
     name rfoot
     direction -0.126681 -0.348054 0.928876   
     length 1.71902  
     axis -90 -7.62852e-016 -20   XYZ
    dof rx rz
    limits (-45.0 90.0)
           (-20.0 70.0)
  end
  begin
     id 10 
     name rtoes
     direction -1.53551e-011 -4.21898e-011 1   
     length 0.857792   
     axis -90 -7.62852e-016 -20   XYZ
    dof rx
    limits (-90.0 20.0)
  end
  begin
     id 11 
     name lowerback
     direction 0.0106509 0.999778 0.0181844   
     length 2.07668   
     axis 0 0 0   XYZ
    dof rx ry rz
    limits (-20.0 45.0)
           (-30.0 30.0)
           (-30.0 30.0)
  end
  begin
     id 12 
     name upperback
     direction -0.00456018 0.999989 -0.000590935   
     length 2.08011   
     axis 0 0 0   XYZ
    dof rx ry rz
    limits (-20.0 45.0)
           (-30.0 30.0)
           (-30.0 30.0)
  end
  begin
     id 13 
     name thorax
     direction -0.00910382 0.999916 -0.00923765   
     length 2.07397   
     axis 0 0 0   XYZ
    dof rx ry rz
    limits (-20.0 45.0)
           (-30.0 30.0)
           (-30.0 30.0)
  end
  begin
     id 14 
     name lowerneck
     direction 0.00171967 0.99778 0.0665733   
     length 1.67556   
     axis 0 0 0   XYZ
    dof rx ry rz
    limits (-20.0 45.0)
           (-30.0 30.0)
           (-30.0 30.0)
  end
  begin
     id 15 
     name upperneck
     direction -0.0143166 0.991302 -0.130828   
     length 1.68462   
     axis 0 0 0   XYZ
    dof rx ry rz
    limits (-20.0 45.0)
           (-30.0 30.0)
           (-30.0 30.0)
  end
  begin
     id 16
     name head
     direction -0.00606378 0.998665 -0.0512995  
     length 1.69269  
     axis 0 0 0   XYZ
    dof rx ry rz
    limits (-20.0 45.0)
           (-30.0 30.0)
           (-30.0 30.0)
  end
  begin
     id 17 
     name lclavicle
     direction 0.9638 0.179341 0.197297  
     length 4.12888  
     axis 0 0 0   XYZ
    dof ry rz
    limits (-20.0 10.0)
           (0.0 20.0)
  end
  begin
     id 18 
     name lhumerus
     direction 1 -4.48972e-011 -2.47351e-027   
     length 5.01834   
     axis -180 -30 -90   XYZ
    dof rx ry rz
    limits (-60.0 90.0)
           (-90.0 90.0)
           (-90.0 90.0)
  end
  begin
     id 19
     name lradius
     direction 1 -4.48965e-011 1.51591e-026   
     length 3.4869   
     axis -180 -30 -90   XYZ
    dof rx
    limits (-10.0 170.0)
  end
  begin
     id 20
     name lwrist
     direction 1 -4.48957e-011 2.70032e-026   
     length 1.74345   
     axis -1.81515e-014 90 90   XYZ
    dof ry
    limits (-180.0 0.0)
 end
  begin
     id 21 
     name lhand
     direction 1 -4.48951e-011 5.40064e-026   
     length 0.76799   
     axis -3.44607e-014 90 90   XYZ
    dof rx rz
    limits (-90.0 90.0)
           (-45.0 45.0)
  end
  begin
     id 22 
     name lfingers
     direction 1 -4.48971e-011 1.08013e-025   
     length 0.619174   
     axis -6.89214e-014 90 90   XYZ
    dof rx
    limits (0.0 90.0)
  end
  begin
     id 23
     name lthumb
     direction 0.707107 -6.34931e-011 0.707107   
     length 0.889013   
     axis -90 45 2.85299e-015   XYZ
    dof rx rz
    limits (-45.0 45.0)
           (-45.0 45.0)
  end
  begin
     id 24 
     name rclavicle
     direction -0.961409 0.252588 0.109054   
     length 4.04305  
     axis 0 0 0   XYZ 
    dof ry rz
    limits (-10.0 20.0)
           (-20.0 0.0)
  end
  begin
     id 25 
     name rhumerus
     direction -1 -4.4897e-011 1.33872e-017  
     length 4.70164   
     axis -180 30 90   XYZ
    dof rx ry rz
    limits (-90.0 60.0)
           (-90.0 90.0)
           (-90.0 90.0)
  end
  begin
     id 26 
     name rradius
     direction -1 -4.48954e-011 1.83844e-026   
     length 3.49911   
     axis -180 30 90   XYZ
    dof rx
    limits (-10.0 170.0)
  end
  begin
     id 27 
     name rwrist
     direction -1 -4.49008e-011 2.70032e-026   
     length 1.74955   
     axis -1.81515e-014 -90 -90   XYZ
    dof ry
    limits (-180.0 0.0)
  end
  begin
     id 28
     name rhand
     direction -1 -4.48916e-011 5.40064e-026   
     length 0.739335   
     axis -3.44607e-014 -90 -90   XYZ
    dof rx rz
    limits (-90.0 90.0)
           (-45.0 45.0)
  end
  begin
     id 29
     name rfingers
     direction -1 -4.48987e-011 1.08013e-025   
     length 0.596071   
     axis -6.89214e-014 -90 -90   XYZ
    dof rx
    limits (0.0 90.0)
  end
  begin
     id 30
     name rthumb
     direction -0.707107 -6.34935e-011 0.707107   
     length 0.855843   
     axis -90 -45 -2.85299e-015   XYZ
    dof rx rz
    limits (-45.0 45.0)
           (-45.0 45.0)
  end
:hierarchy
  begin
    root lhipjoint rhipjoint lowerback
    lhipjoint lfemur
    lfemur ltibia
    ltibia lfoot
    lfoot ltoes
    rhipjoint rfemur
    rfemur rtibia
    rtibia rfoot
    rfoot rtoes
    lowerback upperback
    upperback thorax
    thorax lowerneck lclavicle rclavicle
    lowerneck upperneck
    upperneck head
    lclavicle lhumerus
    lhumerus lradius
    lradius lwrist
    lwrist lhand lthumb
    lhand lfingers
    rclavicle rhumerus
    rhumerus rradius
    rradius rwrist
    rwrist rhand rthumb
    rhand rfingers
  end

#!OML:ASF I:\salsa\salsa 7_09\Patient 1\Session 1\dancermale.ASF
:FULLY-SPECIFIED
:DEGREES
1117
root 2.23092 16.5837 -3.12494 13.9264 69.9031 729.875
lowerback 1.93433 7.69527 6.12541
upperback -1.03203 10.4419 0.366282
thorax -1.12922 5.16271 -3.19067
lowerneck -9.76372 -2.55114 0.0965476
upperneck 10.3192 -3.04009 -3.1299
head 4.64211 -1.67041 -1.18695
rclavicle -8.56638e-014 -9.54166e-015
rhumerus -10.4426 12.3683 -105.919
rradius 85.4678
rwrist -10.8206
rhand -23.8373 -3.66651
rfingers 7.12502
rthumb 2.63451 -33.63
lclavicle -8.56638e-014 -9.54166e-015
lhumerus -43.3491 -48.7277 118.756
lradius 93.6503
lwrist 43.5474
lhand -6.52479 59.5381
lfingers 7.12502
lthumb 19.3278 -631.402
rfemur -35.7786 -24.7906 23.3274
rtibia 46.8311
rfoot -22.7411 -25.3429
rtoes 21.1624
lfemur -37.9667 18.6886 -24.5345
ltibia 74.0233
lfoot -5.6391 -1.01157
ltoes 6.07235
1118
root 2.4319 16.5794 -3.17632 13.3108 68.9521 729.615
lowerback 1.94692 7.38975 6.10247
upperback -0.940927 10.0336 0.508956
thorax -1.11061 4.96165 -3.03406
lowerneck -9.74214 -1.93889 0.340529
upperneck 10.7533 -2.21317 -3.31435
head 4.78174 -1.26683 -1.23252
rclavicle 3.31908e-014 2.06736e-014
rhumerus -13.5643 10.6701 -103.483
rradius 90.4425
rwrist -18.0307
rhand -19.5533 -3.78731
rfingers 7.12502
rthumb 6.77104 -33.659
lclavicle 3.31908e-014 2.06736e-014
lhumerus -44.4417 -47.2416 119.561
lradius 92.8088
lwrist 42.4569
lhand -7.11766 60.9859
lfingers 7.12502
lthumb 18.7577 -810.101
rfemur -34.2736 -25.6448 22.5332
rtibia 46.1401
rfoot -21.9219 -24.4753
rtoes 18.0438
lfemur -39.2101 19.1816 -23.4574
ltibia 76.765
lfoot -5.02612 -1.00597
ltoes 7.02621
1119
root 2.62939 16.5788 -3.23757 12.6734 67.8596 729.311
lowerback 1.96899 7.17781 6.05606
upperback -0.737071 9.74547 0.690133
thorax -0.977899 4.82649 -2.81619
lowerneck -10.0353 -1.26224 0.736785
upperneck 11.3061 -1.26466 -3.87975
head 5.01373 -0.82578 -1.41545
rclavicle 1.10301e-013 2.06736e-014
rhumerus -15.7008 8.30061 -100.142
rradius 94.4224
rwrist -25.7001
rhand -15.884 -4.09547
rfingers 7.12502
rthumb 10.3121 -33.8227
lclavicle 1.10301e-013 2.06736e-014
lhumerus -45.0029 -46.1781 120.046
lradius 92.0902
lwrist 40.9026
lhand -8.03347 62.2749
lfingers 7.12502
lthumb 17.8766 -811.473
rfemur -33.022 -26.0828 21.7452
rtibia 45.6905
rfoot -20.9438 -24.1674
rtoes 12.9994
lfemur -39.8699 19.6938 -22.2419
ltibia 78.5171
lfoot -6.04002 1.56888
ltoes 2.15682
1120
root 2.82329 16.5851 -3.30983 11.7301 66.4737 728.573
lowerback 2.01134 7.15174 6.16307
upperback -0.517149 9.71053 0.924401
thorax -0.800378 4.81837 -2.62456
lowerneck -10.4404 -0.669565 0.946869
upperneck 11.9297 -0.390686 -4.44224
head 5.29565 -0.433393 -1.57043
rclavicle -4.06887e-014 7.95139e-015
rhumerus -16.7532 5.2543 -96.1436
rradius 96.891
rwrist -33.5578
rhand -13.5107 -4.53541
rfingers 7.12502
rthumb 12.6009 -34.1354
lclavicle -4.06887e-014 7.95139e-015
lhumerus -45.3426 -45.3898 120.356
lradius 91.607
lwrist 39.8879
lhand -8.68537 62.9357
lfingers 7.12502
lthumb 17.2493 -812.19
rfemur -32.2275 -25.5229 21.0326
rtibia 45.7081
rfoot -21.1687 -23.6644
rtoes 12.2932
lfemur -39.7763 19.8304 -20.2556
ltibia 78.2805
lfoot -6.8477 3.16934
ltoes 7.89201
1121
root 3.0097 16.5986 -3.38479 11.083 64.9225 728.027
lowerback 2.13148 7.19759 6.17143
upperback -0.397346 9.77809 1.08841
thorax -0.764604 4.85559 -2.4709
lowerneck -10.435 -0.12272 0.953152
upperneck 12.006 0.440738 -5.02967
head 5.34444 -0.0653665 -1.6932
rclavicle 4.05024e-014 -4.77083e-015
rhumerus -16.9192 1.46766 -92.2568
rradius 97.6682
rwrist -41.2198
rhand -12.4077 -5.43131
rfingers 7.12502
rthumb 13.6641 -34.9628
lclavicle 4.05024e-014 -4.77083e-015
lhumerus -45.8164 -44.6853 120.515
lradius 91.425
lwrist 39.4409
lhand -8.78732 62.9759
lfingers 7.12502
lthumb 17.1512 -812.239
rfemur -31.8723 -24.7703 20.3143
rtibia 46.0501
rfoot -21.6915 -22.997
rtoes 13.2514
lfemur -39.2275 19.6819 -18.1077
ltibia 76.9303
lfoot -7.83029 4.2859
ltoes 8.14963
1122
root 3.18612 16.6151 -3.46451 11.2109 63.4325 728.069
lowerback 2.19957 7.19007 5.94683
upperback -0.420257 9.76858 1.10885
thorax -0.867192 4.8486 -2.34541
lowerneck -10.14 0.44708 1.09289
upperneck 11.7851 1.26846 -5.63215
head 5.25743 0.314053 -1.84011
rclavicle -8.10296e-014 1.74931e-014
rhumerus -16.2083 -2.72204 -88.9832
rradius 96.4652
rwrist -47.9588
rhand -12.2184 -6.25314
rfingers 7.12502
rthumb 13.8465 -35.7722
lclavicle -8.10296e-014 1.74931e-014
lhumerus -46.4375 -43.8645 120.496
lradius 91.4187
lwrist 39.4092
lhand -8.6153 62.6141
lfingers 7.12502
lthumb 17.3167 -811.863
rfemur -31.7905 -24.4108 19.5355
rtibia 46.2388
rfoot -21.4551 -22.4915
rtoes 11.8176
lfemur -38.431 18.5612 -15.7992
ltibia 73.9534
lfoot -8.45838 4.29554
ltoes 12.2675
1123
root 3.36152 16.6342 -3.55574 11.683 61.9961 728.4
lowerback 2.19245 7.12176 5.72578
upperback -0.472769 9.6717 1.03378
thorax -0.948092 4.79801 -2.30925
lowerneck -9.73272 1.25711 1.66332
upperneck 11.8165 2.40574 -6.47023
head 5.25556 0.850054 -2.1114
rclavicle 1.0558e-013 3.33958e-014
rhumerus -14.603 -7.16925 -86.656
rradius 93.1997
rwrist -52.7844
rhand -12.1289 -6.23981
rfingers 7.12502
rthumb 13.9328 -35.753
lclavicle 1.0558e-013 3.33958e-014
lhumerus -47.1287 -42.8555 120.319
lradius 91.5125
lwrist 40.1053
lhand -8.30411 62.0011
lfingers 7.12502
lthumb 17.6162 -811.223
rfemur -31.6058 -24.0165 18.5776
rtibia 46.0217
rfoot -20.8558 -22.1297
rtoes 9.2761
lfemur -37.5334 17.0411 -13.6314
ltibia 70.2676
lfoot -9.07822 4.38182
ltoes 12.6674
